<?xml version="1.0" standalone="no"?>
<!DOCTYPE svg PUBLIC "-//W3C//DTD SVG 20010904//EN"
 "http://www.w3.org/TR/2001/REC-SVG-20010904/DTD/svg10.dtd">
<svg version="1.0" xmlns="http://www.w3.org/2000/svg"
 width="488.000000pt" height="488.000000pt" viewBox="0 0 488.000000 488.000000"
 preserveAspectRatio="xMidYMid meet">
<metadata>
Created by potrace 1.11, written by Peter Selinger 2001-2013
</metadata>
<g transform="translate(0.000000,488.000000) scale(0.100000,-0.100000)"
fill="#000000" stroke="none">
<path d="M2305 3799 c-304 -33 -634 -143 -880 -292 l-60 -37 1265 0 1265 1
-40 25 c-62 39 -211 108 -316 148 -190 70 -361 112 -584 141 -146 19 -527 27
-650 14z"/>
<path d="M1214 3328 c-74 -63 -171 -157 -216 -210 l-40 -48 1743 0 1743 0 -44
46 c-54 56 -182 156 -269 213 l-64 41 -1402 0 -1402 0 -49 -42z"/>
<path d="M86 2878 c-35 -74 -86 -206 -86 -225 0 -1 896 -3 1991 -3 1852 0
1991 1 1985 17 -9 22 -95 151 -106 158 -4 3 -27 -16 -50 -42 -50 -57 -74 -72
-118 -73 -49 0 -83 22 -132 85 -67 86 -103 86 -171 -1 -88 -115 -170 -114
-259 1 -67 86 -103 86 -171 -1 -88 -115 -167 -115 -258 0 -69 87 -104 87 -172
0 -54 -70 -74 -84 -122 -84 -54 0 -87 21 -137 85 -67 87 -101 84 -175 -14 -71
-93 -147 -104 -217 -30 -44 46 -46 54 -17 70 19 10 26 7 55 -25 49 -54 70 -49
144 34 101 114 163 116 250 7 77 -95 105 -94 180 1 88 110 160 111 247 3 78
-97 108 -97 183 -3 89 112 164 110 255 -6 64 -82 108 -83 170 -1 87 115 165
119 250 12 76 -96 101 -98 173 -16 l50 57 -35 43 -35 43 -1814 0 -1814 0 -44
-92z"/>
<path d="M729 2523 c-15 -37 -5 -203 16 -273 26 -86 109 -248 167 -325 l53
-70 1914 -3 c1730 -2 1916 -1 1932 14 9 8 27 39 40 67 20 45 23 73 27 214 4
146 2 169 -18 235 -12 40 -33 94 -46 120 l-24 48 -2025 0 -2025 0 -11 -27z
m1081 -123 l0 -40 -65 0 -65 0 0 40 0 40 65 0 65 0 0 -40z m700 -185 l0 -226
-62 3 -63 3 -3 223 -2 222 65 0 65 0 0 -225z m490 0 l0 -225 -60 0 c-48 0 -60
3 -60 16 0 12 -5 14 -17 9 -66 -28 -101 -36 -133 -30 -85 16 -130 73 -130 165
0 126 112 201 248 167 l32 -9 0 66 0 66 60 0 60 0 0 -225z m1060 185 l0 -40
-65 0 -65 0 0 40 0 40 65 0 65 0 0 -40z m-2460 -25 l0 -45 -115 0 -115 0 0
-35 0 -35 105 0 105 0 0 -45 0 -45 -105 0 -104 0 -3 -87 -3 -88 -67 -3 -68 -3
0 216 0 215 185 0 185 0 0 -45z m1920 0 l0 -45 -80 0 -80 0 0 -170 0 -170 -65
0 -65 0 0 170 0 170 -80 0 -80 0 0 45 0 45 225 0 225 0 0 -45z m-1296 -73 c44
-26 68 -65 74 -121 l5 -51 -142 0 c-77 0 -141 -2 -141 -4 0 -57 114 -85 210
-51 23 8 46 15 51 15 12 0 12 -77 0 -84 -4 -3 -41 -10 -80 -17 -136 -21 -258
18 -294 94 -49 102 14 212 135 237 57 11 146 3 182 -18z m2290 0 c47 -28 68
-77 64 -149 -4 -67 -21 -100 -71 -137 -32 -24 -131 -34 -176 -18 l-31 11 0
-65 0 -64 -60 0 -60 0 0 220 0 220 60 0 c48 0 60 -3 60 -16 0 -12 5 -14 18 -9
91 39 139 41 196 7z m-2714 -147 l0 -165 -60 0 -60 0 0 165 0 165 60 0 60 0 0
-165z m1910 139 l0 -26 33 20 c17 11 53 23 80 27 l47 7 0 -54 0 -55 -52 5
c-29 2 -65 -1 -80 -7 l-28 -11 0 -105 0 -105 -60 0 -60 0 0 165 0 165 60 0
c58 0 60 -1 60 -26z m350 -139 l0 -165 -60 0 -60 0 0 165 0 165 60 0 60 0 0
-165z"/>
<path d="M2775 2238 c-34 -18 -45 -40 -45 -88 0 -70 47 -102 115 -80 l35 12 0
78 c0 62 -3 79 -16 84 -24 9 -67 7 -89 -6z"/>
<path d="M2050 2247 c-14 -7 -26 -20 -28 -30 -3 -15 6 -17 72 -17 82 0 98 13
54 44 -27 19 -64 20 -98 3z"/>
<path d="M4330 2241 c-24 -6 -25 -11 -28 -88 -3 -78 -2 -81 22 -87 67 -17 126
27 126 94 0 65 -53 101 -120 81z"/>
<path d="M1108 1740 c45 -38 178 -70 392 -96 113 -13 216 -30 229 -37 16 -8
33 -34 50 -77 l26 -65 790 -3 790 -2 60 25 c105 43 183 56 475 80 334 27 491
52 614 95 66 22 136 61 156 84 11 15 -160 16 -1796 16 -1796 -1 -1809 -1
-1786 -20z"/>
<path d="M1900 1320 c79 -99 196 -175 334 -214 247 -72 386 -41 866 193 l125
61 -678 0 -679 0 32 -40z"/>
</g>
</svg>
